<svg xmlns="http://www.w3.org/2000/svg" xmlns:xlink="http://www.w3.org/1999/xlink" version="1.1" width="208.08pt" height="69.12pt" viewBox="0 0 208.08 69.12">
<defs>
<clipPath id="clip_0">
<path transform="matrix(.1,0,0,-.1,0,69.12)" d="M0 19V691H2080V19Z" fill-rule="evenodd"/>
</clipPath>
</defs>
<g clip-path="url(#clip_0)">
<path transform="matrix(.1,0,0,-.1,0,69.12)" d="M2069.17 463.699C2069.17 456.605 2068.47 449.523 2067.08 442.465 2065.69 435.402 2063.61 428.391 2060.84 421.43 2058.07 414.473 2054.63 407.594 2050.51 400.805 2046.39 394.016 2041.61 387.34 2036.18 380.785 2030.75 374.23 2024.69 367.824 2018 361.563 2011.31 355.305 2004.02 349.227 1996.14 343.328 1988.25 337.426 1979.81 331.734 1970.8 326.25 1961.8 320.762 1952.28 315.512 1942.25 310.492 1932.21 305.477 1921.71 300.715 1910.74 296.215 1899.77 291.711 1888.38 287.492 1876.58 283.547 1864.78 279.605 1852.62 275.961 1840.11 272.617 1827.59 269.273 1814.77 266.242 1801.66 263.527 1788.55 260.813 1775.2 258.422 1761.62 256.363 1748.04 254.305 1734.29 252.582 1720.37 251.195 1706.45 249.813 1692.43 248.773 1678.31 248.078 1664.18 247.383 1650.02 247.035 1635.83 247.035 1621.64 247.035 1607.48 247.383 1593.36 248.078 1579.23 248.773 1565.21 249.813 1551.29 251.195 1537.38 252.582 1523.63 254.305 1510.04 256.363 1496.46 258.422 1483.12 260.813 1470 263.527 1456.89 266.242 1444.08 269.273 1431.56 272.617 1419.04 275.961 1406.89 279.605 1395.09 283.547 1383.29 287.492 1371.9 291.711 1360.93 296.215 1349.96 300.715 1339.46 305.477 1329.42 310.492 1319.38 315.512 1309.87 320.762 1300.86 326.25 1291.86 331.734 1283.41 337.426 1275.53 343.328 1267.64 349.227 1260.36 355.305 1253.67 361.563 1246.98 367.824 1240.92 374.23 1235.48 380.785 1230.05 387.34 1225.28 394.016 1221.16 400.805 1217.04 407.594 1213.59 414.473 1210.82 421.43 1208.06 428.391 1205.98 435.402 1204.59 442.465 1203.2 449.523 1202.5 456.605 1202.5 463.699 1202.5 470.797 1203.2 477.875 1204.59 484.938 1205.98 492 1208.06 499.012 1210.82 505.969 1213.59 512.93 1217.04 519.805 1221.16 526.594 1225.28 533.387 1230.05 540.059 1235.48 546.613 1240.92 553.172 1246.98 559.578 1253.67 565.836 1260.36 572.094 1267.64 578.172 1275.53 584.074 1283.41 589.973 1291.86 595.668 1300.86 601.152 1309.87 606.637 1319.38 611.891 1329.42 616.906 1339.46 621.926 1349.96 626.684 1360.93 631.188 1371.9 635.688 1383.29 639.91 1395.09 643.852 1406.89 647.793 1419.04 651.438 1431.56 654.781 1444.08 658.129 1456.89 661.16 1470 663.875 1483.12 666.59 1496.46 668.977 1510.04 671.035 1523.63 673.098 1537.38 674.82 1551.29 676.203 1565.21 677.586 1579.23 678.629 1593.36 679.324 1607.48 680.02 1621.64 680.367 1635.83 680.367 1650.02 680.367 1664.18 680.02 1678.31 679.324 1692.43 678.629 1706.45 677.586 1720.37 676.203 1734.29 674.82 1748.04 673.098 1761.62 671.035 1775.2 668.977 1788.55 666.59 1801.66 663.875 1814.77 661.16 1827.59 658.129 1840.11 654.781 1852.62 651.438 1864.78 647.793 1876.58 643.852 1888.38 639.91 1899.77 635.688 1910.74 631.188 1921.71 626.684 1932.21 621.926 1942.25 616.906 1952.28 611.891 1961.8 606.637 1970.8 601.152 1979.81 595.668 1988.25 589.973 1996.14 584.074 2004.02 578.172 2011.31 572.094 2018 565.836 2024.69 559.578 2030.75 553.172 2036.18 546.613 2041.61 540.059 2046.39 533.387 2050.51 526.594 2054.63 519.805 2058.07 512.93 2060.84 505.969 2063.61 499.012 2065.69 492 2067.08 484.938 2068.47 477.875 2069.17 470.797 2069.17 463.699" fill="#ffffff"/>
<path transform="matrix(.1,0,0,-.1,0,69.12)" stroke-width="7.22222" stroke-linecap="butt" stroke-miterlimit="4" stroke-linejoin="miter" fill="none" stroke="#000000" d="M2069.17 463.699C2069.17 456.605 2068.47 449.523 2067.08 442.465 2065.69 435.402 2063.61 428.391 2060.84 421.43 2058.07 414.473 2054.63 407.594 2050.51 400.805 2046.39 394.016 2041.61 387.34 2036.18 380.785 2030.75 374.23 2024.69 367.824 2018 361.563 2011.31 355.305 2004.02 349.227 1996.14 343.328 1988.25 337.426 1979.81 331.734 1970.8 326.25 1961.8 320.762 1952.28 315.512 1942.25 310.492 1932.21 305.477 1921.71 300.715 1910.74 296.215 1899.77 291.711 1888.38 287.492 1876.58 283.547 1864.78 279.605 1852.62 275.961 1840.11 272.617 1827.59 269.273 1814.77 266.242 1801.66 263.527 1788.55 260.813 1775.2 258.422 1761.62 256.363 1748.04 254.305 1734.29 252.582 1720.37 251.195 1706.45 249.813 1692.43 248.773 1678.31 248.078 1664.18 247.383 1650.02 247.035 1635.83 247.035 1621.64 247.035 1607.48 247.383 1593.36 248.078 1579.23 248.773 1565.21 249.813 1551.29 251.195 1537.38 252.582 1523.63 254.305 1510.04 256.363 1496.46 258.422 1483.12 260.813 1470 263.527 1456.89 266.242 1444.08 269.273 1431.56 272.617 1419.04 275.961 1406.89 279.605 1395.09 283.547 1383.29 287.492 1371.9 291.711 1360.93 296.215 1349.96 300.715 1339.46 305.477 1329.42 310.492 1319.38 315.512 1309.87 320.762 1300.86 326.25 1291.86 331.734 1283.41 337.426 1275.53 343.328 1267.64 349.227 1260.36 355.305 1253.67 361.563 1246.98 367.824 1240.92 374.23 1235.48 380.785 1230.05 387.34 1225.28 394.016 1221.16 400.805 1217.04 407.594 1213.59 414.473 1210.82 421.43 1208.06 428.391 1205.98 435.402 1204.59 442.465 1203.2 449.523 1202.5 456.605 1202.5 463.699 1202.5 470.797 1203.2 477.875 1204.59 484.938 1205.98 492 1208.06 499.012 1210.82 505.969 1213.59 512.93 1217.04 519.805 1221.16 526.594 1225.28 533.387 1230.05 540.059 1235.48 546.613 1240.92 553.172 1246.98 559.578 1253.67 565.836 1260.36 572.094 1267.64 578.172 1275.53 584.074 1283.41 589.973 1291.86 595.668 1300.86 601.152 1309.87 606.637 1319.38 611.891 1329.42 616.906 1339.46 621.926 1349.96 626.684 1360.93 631.188 1371.9 635.688 1383.29 639.91 1395.09 643.852 1406.89 647.793 1419.04 651.438 1431.56 654.781 1444.08 658.129 1456.89 661.16 1470 663.875 1483.12 666.59 1496.46 668.977 1510.04 671.035 1523.63 673.098 1537.38 674.82 1551.29 676.203 1565.21 677.586 1579.23 678.629 1593.36 679.324 1607.48 680.02 1621.64 680.367 1635.83 680.367 1650.02 680.367 1664.18 680.02 1678.31 679.324 1692.43 678.629 1706.45 677.586 1720.37 676.203 1734.29 674.82 1748.04 673.098 1761.62 671.035 1775.2 668.977 1788.55 666.59 1801.66 663.875 1814.77 661.16 1827.59 658.129 1840.11 654.781 1852.62 651.438 1864.78 647.793 1876.58 643.852 1888.38 639.91 1899.77 635.688 1910.74 631.188 1921.71 626.684 1932.21 621.926 1942.25 616.906 1952.28 611.891 1961.8 606.637 1970.8 601.152 1979.81 595.668 1988.25 589.973 1996.14 584.074 2004.02 578.172 2011.31 572.094 2018 565.836 2024.69 559.578 2030.75 553.172 2036.18 546.613 2041.61 540.059 2046.39 533.387 2050.51 526.594 2054.63 519.805 2058.07 512.93 2060.84 505.969 2063.61 499.012 2065.69 492 2067.08 484.938 2068.47 477.875 2069.17 470.797 2069.17 463.699Z"/>
<path transform="matrix(.1,0,0,-.1,0,69.12)" d="M1516.31 561.859 1524.97 559.797C1522.96 553.145 1520.25 547.953 1515.88 544.422 1511.22 541.094 1506.17 539.141 1499.86 539.141 1493.02 539.43 1487.98 540.492 1483.89 543.203 1479.5 546.188 1476.68 549.852 1474.53 555 1472.22 560.156 1471.33 565.691 1471.33 571.609 1471.22 578.195 1472.52 583.691 1474.91 588.484 1476.99 593.457 1480.68 596.93 1485.08 599.422 1489.45 602.113 1494.31 603.172 1499.59 603.172 1505.38 603.445 1510.62 601.598 1514.7 598.453 1518.55 595.488 1521.63 590.883 1523.25 585.188L1514.59 583.281C1513.06 588.031 1511.32 591.078 1508.77 593.141 1505.97 595.5 1503.02 596.25 1499.17 596.25 1494.69 596.5 1491.04 595.102 1488.06 592.813 1485.07 590.582 1483 587.441 1481.8 583.578 1480.32 579.863 1479.98 575.75 1479.98 571.656 1479.66 566.488 1480.71 561.758 1482.17 557.813 1483.58 553.938 1485.91 550.93 1489 548.984 1492.09 547.039 1495.44 546.063 1499.05 546.063 1503.39 546.375 1507.11 547.383 1510.16 550.031 1513.14 553.008 1515.25 556.629 1516.31 561.859"/>
<path transform="matrix(.1,0,0,-.1,0,69.12)" d="M1533.47 562.5C1533.31 570.938 1535.74 576.898 1540.3 580.891 1544.01 584.238 1548.76 585.859 1554.25 585.859 1560.26 585.906 1565.32 583.844 1569.19 579.813 1573 575.844 1575 570.219 1575 563.125 1575 557.664 1574.14 552.848 1572.42 549.547 1570.57 546.406 1568.22 543.695 1564.95 541.875 1561.36 540.094 1558.11 539.141 1554.25 539.141 1547.96 539.43 1543.02 541.145 1539.2 545.156 1535.31 549.445 1533.47 554.945 1533.47 562.5ZM1541.25 562.516C1541.16 557.176 1542.48 552.895 1544.94 550.156 1547.09 547.707 1550.51 546.063 1554.25 546.063 1557.88 546.375 1561.04 547.43 1563.5 550.172 1565.8 553.195 1567.2 557.113 1567.2 562.75 1567.13 568.156 1565.96 572.098 1563.48 574.828 1560.84 577.625 1557.93 578.938 1554.25 578.938 1550.43 578.957 1547.41 577.57 1544.94 574.844 1542.16 572.176 1541.25 568.016 1541.25 562.516"/>
<path transform="matrix(.1,0,0,-.1,0,69.12)" d="M1593.44 560.766V567.688C1596.45 567.82 1598.74 567.828 1599.89 568.016 1600.75 568.531 1602.13 568.77 1603.16 569.719 1604.13 570.758 1604.69 571.848 1604.69 573.266 1604.46 575.238 1604.04 576.367 1602.73 577.391 1601.19 578.625 1599.75 578.938 1597.69 578.938 1593.38 578.957 1590.75 576.914 1589.11 572.875L1580.47 573.75C1582.58 581.906 1588.23 585.859 1596.95 585.859 1601.49 585.906 1605.6 584.609 1608.34 582.109 1610.98 579.914 1612.47 576.648 1612.47 573.203 1612.31 569.988 1610.48 566.953 1606.5 564.891 1608.61 563.676 1610.49 562.039 1611.63 560.094 1612.56 558.457 1613.34 555.852 1613.34 553.188 1613.23 549.289 1611.91 545.633 1609.05 543.031 1606.16 540.758 1602.17 539.141 1597.02 539.141 1586.99 539.43 1581.19 544.039 1579.59 553.844L1588.25 554.703C1588.73 552.063 1589.96 549.836 1591.7 548.328 1593.22 547.039 1595.45 546.063 1597.7 546.063 1599.71 546.375 1601.8 546.766 1603.3 548.172 1604.7 549.852 1605.55 551.375 1605.55 553.563 1605.36 555.406 1605.06 556.734 1604.09 557.984 1603.09 559.238 1602.09 560.016 1600.98 560.328 1599.56 560.875 1597.9 560.813 1595.02 560.813 1594.78 560.875 1594.26 560.797 1593.44 560.766"/>
<path transform="matrix(.1,0,0,-.1,0,69.12)" d="M1627.11 585H1657.39V546.922H1662.59V527.016H1655.67V540H1621.92V527.016H1615V546.922H1619.33C1624.63 554.113 1627.34 566.781 1627.11 585ZM1634.03 578.078C1633.52 564.344 1631.52 553.648 1627.98 546.922H1649.61V578.078H1634.03"/>
<path transform="matrix(.1,0,0,-.1,0,69.12)" d="M1700.61 546.063C1697.48 543.832 1694.95 541.727 1692.42 540.688 1689.76 539.762 1687.2 539.141 1684.31 539.141 1679.44 539.43 1675.88 540.336 1673.31 542.734 1670.64 545.227 1669.47 548.211 1669.47 551.953 1669.31 554.156 1669.95 556.141 1670.92 557.953 1671.58 559.781 1673.16 561.219 1674.72 562.313 1676.05 563.633 1678.05 564.238 1680.02 564.813 1681.46 565.258 1683.64 565.57 1686.56 565.938 1692.32 566.695 1696.89 567.547 1699.7 568.547 1699.5 569.676 1699.75 570.145 1699.75 570.406 1699.5 573.5 1699.05 575.344 1697.67 576.531 1695.58 578.289 1693.04 578.938 1689.36 578.938 1685.8 578.957 1683.38 578.363 1681.75 577.219 1679.86 576.332 1678.9 574.051 1678.11 571.156L1670.33 572.016C1670.91 575.531 1672.14 577.773 1673.7 579.734 1675.04 581.789 1677.54 583.211 1680.5 584.266 1683.3 585.57 1686.91 585.859 1690.83 585.859 1694.43 585.906 1697.85 585.398 1700.27 584.484 1702.6 583.738 1704.47 582.414 1705.61 581.031 1706.55 579.969 1707.55 577.891 1708.02 575.766 1708.26 574.531 1708.39 572.18 1708.39 568.953V559.297C1708.26 552.789 1708.56 548.133 1708.91 546.031 1708.96 544.258 1709.96 541.926 1711 540H1703.2C1701.79 541.727 1700.99 543.75 1700.61 546.063ZM1699.75 561.625C1696.81 560.75 1693.03 559.781 1687.66 559.094 1684.39 558.988 1682.46 558.234 1681.19 557.734 1679.86 557.332 1678.95 556.516 1678.27 555.547 1677.5 554.727 1677.25 553.508 1677.25 552.344 1677.16 550.77 1677.99 549.055 1679.48 547.859 1680.81 546.707 1683.16 546.063 1686.03 546.063 1688.88 546.375 1691.41 546.676 1693.63 547.906 1695.63 549.164 1697.47 550.711 1698.52 552.641 1699.13 554.25 1699.7 556.32 1699.7 559.219L1699.75 561.625"/>
<path transform="matrix(.1,0,0,-.1,0,69.12)" d="M1713.73 585H1750.94V578.078H1736.23V540H1728.44V578.078H1713.73V585"/>
<path transform="matrix(.1,0,0,-.1,0,69.12)" d="M1758.06 585H1765.84V567.688H1774.97C1780.59 567.789 1785.49 566.453 1788.7 563.984 1791.69 561.52 1793.53 558.113 1793.53 553.781 1793.35 550.051 1792.16 546.727 1789.44 544.031 1786.57 541.664 1782.36 540 1776.36 540H1758.06V585ZM1765.84 546.922H1773.28C1777.66 546.945 1780.96 547.473 1782.88 548.578 1784.5 549.832 1785.75 551.422 1785.75 553.766 1785.5 555.664 1785.04 557.207 1783.63 558.625 1782 560.176 1779.07 560.766 1774.22 560.766H1765.84V546.922"/>
<path transform="matrix(.1,0,0,-.1,0,69.12)" d="M1303.44 458.766V465.688C1306.45 465.82 1308.74 465.828 1309.89 466.016 1310.75 466.531 1312.13 466.77 1313.16 467.719 1314.13 468.758 1314.69 469.848 1314.69 471.266 1314.46 473.238 1314.04 474.367 1312.73 475.391 1311.19 476.625 1309.75 476.938 1307.69 476.938 1303.38 476.957 1300.75 474.914 1299.11 470.875L1290.47 471.75C1292.58 479.906 1298.23 483.859 1306.95 483.859 1311.49 483.906 1315.6 482.609 1318.34 480.109 1320.98 477.914 1322.47 474.648 1322.47 471.203 1322.31 467.988 1320.48 464.953 1316.5 462.891 1318.61 461.676 1320.49 460.039 1321.63 458.094 1322.56 456.457 1323.34 453.852 1323.34 451.188 1323.23 447.289 1321.91 443.633 1319.05 441.031 1316.16 438.758 1312.17 437.141 1307.02 437.141 1296.99 437.43 1291.19 442.039 1289.59 451.844L1298.25 452.703C1298.73 450.063 1299.96 447.836 1301.7 446.328 1303.22 445.039 1305.45 444.063 1307.7 444.063 1309.71 444.375 1311.8 444.766 1313.3 446.172 1314.7 447.852 1315.55 449.375 1315.55 451.563 1315.36 453.406 1315.06 454.734 1314.09 455.984 1313.09 457.238 1312.09 458.016 1310.98 458.328 1309.56 458.875 1307.9 458.813 1305.02 458.813 1304.78 458.875 1304.26 458.797 1303.44 458.766"/>
<path transform="matrix(.1,0,0,-.1,0,69.12)" d="M1361.61 444.063C1358.48 441.832 1355.95 439.727 1353.42 438.688 1350.76 437.762 1348.2 437.141 1345.31 437.141 1340.44 437.43 1336.88 438.336 1334.31 440.734 1331.64 443.227 1330.47 446.211 1330.47 449.953 1330.31 452.156 1330.95 454.141 1331.92 455.953 1332.58 457.781 1334.16 459.219 1335.72 460.313 1337.05 461.633 1339.05 462.238 1341.02 462.813 1342.46 463.258 1344.64 463.57 1347.56 463.938 1353.32 464.695 1357.89 465.547 1360.7 466.547 1360.5 467.676 1360.75 468.145 1360.75 468.406 1360.5 471.5 1360.05 473.344 1358.67 474.531 1356.58 476.289 1354.04 476.938 1350.36 476.938 1346.8 476.957 1344.38 476.363 1342.75 475.219 1340.86 474.332 1339.9 472.051 1339.11 469.156L1331.33 470.016C1331.91 473.531 1333.14 475.773 1334.7 477.734 1336.04 479.789 1338.54 481.211 1341.5 482.266 1344.3 483.57 1347.91 483.859 1351.83 483.859 1355.43 483.906 1358.85 483.398 1361.27 482.484 1363.6 481.738 1365.47 480.414 1366.61 479.031 1367.55 477.969 1368.55 475.891 1369.02 473.766 1369.26 472.531 1369.39 470.18 1369.39 466.953V457.297C1369.26 450.789 1369.56 446.133 1369.91 444.031 1369.96 442.258 1370.96 439.926 1372 438H1364.2C1362.79 439.727 1361.99 441.75 1361.61 444.063ZM1360.75 459.625C1357.81 458.75 1354.03 457.781 1348.66 457.094 1345.39 456.988 1343.46 456.234 1342.19 455.734 1340.86 455.332 1339.95 454.516 1339.27 453.547 1338.5 452.727 1338.25 451.508 1338.25 450.344 1338.16 448.77 1338.99 447.055 1340.48 445.859 1341.81 444.707 1344.16 444.063 1347.03 444.063 1349.88 444.375 1352.41 444.676 1354.63 445.906 1356.63 447.164 1358.47 448.711 1359.52 450.641 1360.13 452.25 1360.7 454.32 1360.7 457.219L1360.75 459.625"/>
<path transform="matrix(.1,0,0,-.1,0,69.12)" d="M1381.06 483H1415.67V438H1407.88V476.078H1388.84V438H1381.06V483"/>
<path transform="matrix(.1,0,0,-.1,0,69.12)" d="M1428.06 483H1435.84V448.688L1455.22 483H1464.39V438H1456.61V472.109L1437.36 438H1428.06V483"/>
<path transform="matrix(.1,0,0,-.1,0,69.12)" d="M1505.61 454.438 1513.39 453.578C1512.46 448.57 1510.51 444.406 1507.16 441.5 1503.75 438.758 1499.68 437.141 1494.8 437.141 1488.41 437.43 1483.75 439.133 1480.03 443.125 1476.31 447.414 1474.47 452.859 1474.47 460.328 1474.31 465.375 1475.27 469.367 1476.86 472.984 1478.16 476.613 1480.88 479.328 1484.13 481.141 1487.34 483.238 1490.93 483.859 1494.75 483.859 1499.34 483.906 1503.55 482.578 1506.63 480.016 1509.49 477.789 1511.66 473.844 1512.53 469.156L1504.75 468.281C1503.81 471.395 1502.85 473.316 1501.11 474.766 1499.33 476.289 1497.27 476.938 1494.81 476.938 1490.81 476.957 1488.05 475.625 1485.73 473 1483.16 470.375 1482.25 466.219 1482.25 460.531 1482.16 454.926 1483.38 450.582 1485.64 447.969 1487.7 445.375 1490.88 444.063 1494.53 444.063 1497.29 444.375 1499.91 444.91 1501.88 446.609 1503.55 448.438 1505.09 450.914 1505.61 454.438"/>
<path transform="matrix(.1,0,0,-.1,0,69.12)" d="M1520.06 483H1527.84V465.688H1536.97C1542.59 465.789 1547.49 464.453 1550.7 461.984 1553.69 459.52 1555.53 456.113 1555.53 451.781 1555.35 448.051 1554.16 444.727 1551.44 442.031 1548.57 439.664 1544.36 438 1538.36 438H1520.06V483ZM1527.84 444.922H1535.28C1539.66 444.945 1542.96 445.473 1544.88 446.578 1546.5 447.832 1547.75 449.422 1547.75 451.766 1547.5 453.664 1547.04 455.207 1545.63 456.625 1544 458.176 1541.07 458.766 1536.22 458.766H1527.84V444.922"/>
<path transform="matrix(.1,0,0,-.1,0,69.12)" d="M1589.06 483H1606.48C1610.61 483 1613.96 482.645 1616.05 481.938 1618.11 481.258 1619.92 479.953 1621.42 478.078 1622.78 476.508 1623.67 473.953 1623.67 471.328 1623.45 469.445 1623.2 467.391 1622.27 465.828 1621.25 464.332 1619.95 462.977 1618.09 461.938 1620.16 461.227 1621.94 459.852 1623.31 457.875 1624.59 455.938 1625.39 453.555 1625.39 450.859 1624.99 446.539 1623.62 443.258 1620.89 441.156 1617.88 439.332 1614.22 438 1609.03 438H1589.06V483ZM1596.84 464.828H1604.77C1607.69 464.883 1610.12 464.977 1611.3 465.281 1612.38 465.82 1613.53 466.191 1614.47 467.109 1615.25 468.32 1615.88 469.125 1615.88 470.406 1615.58 472.719 1615.05 473.992 1613.42 474.828 1611.64 475.719 1608.99 476.078 1605.03 476.078H1596.84V464.828ZM1596.84 444.922H1606.55C1610.55 444.945 1613.6 445.398 1615.16 446.359 1616.66 447.539 1617.52 448.988 1617.61 451.344 1617.41 452.945 1617.16 454.008 1616.25 455.188 1615.27 456.645 1614.18 457.125 1612.73 457.438 1611.04 457.938 1608.96 457.906 1605.77 457.906H1596.84V444.922"/>
<path transform="matrix(.1,0,0,-.1,0,69.12)" d="M1659.06 483H1666.84V448.688L1686.22 483H1695.39V438H1687.61V472.109L1668.36 438H1659.06V483"/>
<path transform="matrix(.1,0,0,-.1,0,69.12)" d="M1736.61 454.438 1744.39 453.578C1743.46 448.57 1741.51 444.406 1738.16 441.5 1734.75 438.758 1730.68 437.141 1725.8 437.141 1719.41 437.43 1714.75 439.133 1711.03 443.125 1707.31 447.414 1705.47 452.859 1705.47 460.328 1705.31 465.375 1706.27 469.367 1707.86 472.984 1709.16 476.613 1711.88 479.328 1715.13 481.141 1718.34 483.238 1721.93 483.859 1725.75 483.859 1730.34 483.906 1734.55 482.578 1737.63 480.016 1740.49 477.789 1742.66 473.844 1743.53 469.156L1735.75 468.281C1734.81 471.395 1733.85 473.316 1732.11 474.766 1730.33 476.289 1728.27 476.938 1725.81 476.938 1721.81 476.957 1719.05 475.625 1716.73 473 1714.16 470.375 1713.25 466.219 1713.25 460.531 1713.16 454.926 1714.38 450.582 1716.64 447.969 1718.7 445.375 1721.88 444.063 1725.53 444.063 1728.29 444.375 1730.91 444.91 1732.88 446.609 1734.55 448.438 1736.09 450.914 1736.61 454.438"/>
<path transform="matrix(.1,0,0,-.1,0,69.12)" d="M1746.73 483H1783.94V476.078H1769.23V438H1761.44V476.078H1746.73V483"/>
<path transform="matrix(.1,0,0,-.1,0,69.12)" d="M1787.47 460.5C1787.31 468.938 1789.74 474.898 1794.3 478.891 1798.01 482.238 1802.76 483.859 1808.25 483.859 1814.26 483.906 1819.32 481.844 1823.19 477.813 1827 473.844 1829 468.219 1829 461.125 1829 455.664 1828.14 450.848 1826.42 447.547 1824.57 444.406 1822.22 441.695 1818.95 439.875 1815.36 438.094 1812.11 437.141 1808.25 437.141 1801.96 437.43 1797.02 439.145 1793.2 443.156 1789.31 447.445 1787.47 452.945 1787.47 460.5ZM1795.25 460.516C1795.16 455.176 1796.48 450.895 1798.94 448.156 1801.09 445.707 1804.51 444.063 1808.25 444.063 1811.88 444.375 1815.04 445.43 1817.5 448.172 1819.8 451.195 1821.2 455.113 1821.2 460.75 1821.13 466.156 1819.96 470.098 1817.48 472.828 1814.84 475.625 1811.93 476.938 1808.25 476.938 1804.43 476.957 1801.41 475.57 1798.94 472.844 1796.16 470.176 1795.25 466.016 1795.25 460.516"/>
<path transform="matrix(.1,0,0,-.1,0,69.12)" d="M1837.19 420.688V483H1844.98V476.094C1846.24 478.988 1848.36 480.629 1850.36 481.922 1852.24 483.238 1854.79 483.859 1857.64 483.859 1861.16 483.906 1864.66 482.875 1867.5 480.906 1870.19 478.977 1872.5 476.176 1873.95 472.594 1875.08 469.156 1876.13 465.098 1876.13 460.828 1876.08 456.313 1875.3 452.133 1873.67 448.469 1871.81 444.988 1869.66 442.008 1866.53 440.063 1863.24 438.426 1860.13 437.141 1856.69 437.141 1853.95 437.43 1851.91 437.73 1849.91 438.906 1847.6 440.125 1846.27 441.594 1844.98 443.406V420.688H1837.19ZM1844.98 460.125C1844.66 454.938 1846.1 450.598 1848.34 447.984 1850.48 445.375 1853.32 444.063 1856.52 444.063 1859.59 444.375 1862.55 445.414 1864.86 448.125 1866.89 451.125 1868.34 455.031 1868.34 460.719 1868.23 466.238 1867.21 470.203 1864.94 472.891 1862.36 475.625 1859.98 476.938 1856.84 476.938 1853.45 476.957 1850.97 475.5 1848.58 472.625 1845.99 469.883 1844.98 465.594 1844.98 460.125"/>
<path transform="matrix(.1,0,0,-.1,0,69.12)" d="M1886.06 483H1893.84V448.688L1913.22 483H1922.39V438H1914.61V472.109L1895.36 438H1886.06V483"/>
<path transform="matrix(.1,0,0,-.1,0,69.12)" d="M1935.06 483H1942.84V448.688L1962.22 483H1971.39V438H1963.61V472.109L1944.36 438H1935.06V483"/>
<path transform="matrix(.1,0,0,-.1,0,69.12)" d="M1357.06 375H1391.67V330H1383.88V368.078H1364.84V330H1357.06V375"/>
<path transform="matrix(.1,0,0,-.1,0,69.12)" d="M1435.11 343.844 1442.75 342.984C1441.23 338.594 1439.13 335.18 1435.69 332.766 1432.02 330.426 1427.86 329.141 1422.52 329.141 1415.61 329.43 1410.45 331.148 1406.5 335.172 1402.39 339.477 1400.59 344.852 1400.59 352.125 1400.39 359.926 1402.58 365.469 1406.56 369.625 1410.36 373.906 1415.72 375.859 1422.08 375.859 1428.2 375.906 1433.24 373.836 1437.14 369.797 1441 365.832 1443 360.086 1443 352.766 1443 352.406 1442.98 351.66 1442.95 350.766H1408.39C1408.55 346.094 1410.14 342.375 1412.78 339.844 1415.16 337.375 1418.71 336.063 1422.66 336.063 1425.38 336.375 1428.1 336.68 1430.17 337.922 1432.19 339.188 1433.89 341.133 1435.11 343.844ZM1408.39 357.688H1435.2C1434.78 361.094 1433.82 363.457 1432.13 365.094 1429.5 367.957 1426.18 368.938 1422.03 368.938 1418.29 368.957 1415.16 367.914 1412.61 365.875 1409.85 363.875 1408.65 361.102 1408.39 357.688"/>
<path transform="matrix(.1,0,0,-.1,0,69.12)" d="M1451.19 312.688V375H1458.98V368.094C1460.24 370.988 1462.36 372.629 1464.36 373.922 1466.24 375.238 1468.79 375.859 1471.64 375.859 1475.16 375.906 1478.66 374.875 1481.5 372.906 1484.19 370.977 1486.5 368.176 1487.95 364.594 1489.08 361.156 1490.13 357.098 1490.13 352.828 1490.08 348.313 1489.3 344.133 1487.67 340.469 1485.81 336.988 1483.66 334.008 1480.53 332.063 1477.24 330.426 1474.13 329.141 1470.69 329.141 1467.95 329.43 1465.91 329.73 1463.91 330.906 1461.6 332.125 1460.27 333.594 1458.98 335.406V312.688H1451.19ZM1458.98 352.125C1458.66 346.938 1460.1 342.598 1462.34 339.984 1464.48 337.375 1467.32 336.063 1470.52 336.063 1473.59 336.375 1476.55 337.414 1478.86 340.125 1480.89 343.125 1482.34 347.031 1482.34 352.719 1482.23 358.238 1481.21 362.203 1478.94 364.891 1476.36 367.625 1473.98 368.938 1470.84 368.938 1467.45 368.957 1464.97 367.5 1462.58 364.625 1459.99 361.883 1458.98 357.594 1458.98 352.125"/>
<path transform="matrix(.1,0,0,-.1,0,69.12)" d="M1531.11 343.844 1538.75 342.984C1537.23 338.594 1535.13 335.18 1531.69 332.766 1528.02 330.426 1523.86 329.141 1518.52 329.141 1511.61 329.43 1506.45 331.148 1502.5 335.172 1498.39 339.477 1496.59 344.852 1496.59 352.125 1496.39 359.926 1498.58 365.469 1502.56 369.625 1506.36 373.906 1511.72 375.859 1518.08 375.859 1524.2 375.906 1529.24 373.836 1533.14 369.797 1537 365.832 1539 360.086 1539 352.766 1539 352.406 1538.98 351.66 1538.95 350.766H1504.39C1504.55 346.094 1506.14 342.375 1508.78 339.844 1511.16 337.375 1514.71 336.063 1518.66 336.063 1521.38 336.375 1524.1 336.68 1526.17 337.922 1528.19 339.188 1529.89 341.133 1531.11 343.844ZM1504.39 357.688H1531.2C1530.78 361.094 1529.82 363.457 1528.13 365.094 1525.5 367.957 1522.18 368.938 1518.03 368.938 1514.29 368.957 1511.16 367.914 1508.61 365.875 1505.85 363.875 1504.65 361.102 1504.39 357.688"/>
<path transform="matrix(.1,0,0,-.1,0,69.12)" d="M1548.06 375H1560.64L1571.73 338.984 1583.7 375H1595.64V330H1587.86V366.219L1575.81 330H1567.39L1555.84 367.969V330H1548.06V375"/>
<path transform="matrix(.1,0,0,-.1,0,69.12)" d="M1639.11 343.844 1646.75 342.984C1645.23 338.594 1643.13 335.18 1639.69 332.766 1636.02 330.426 1631.86 329.141 1626.52 329.141 1619.61 329.43 1614.45 331.148 1610.5 335.172 1606.39 339.477 1604.59 344.852 1604.59 352.125 1604.39 359.926 1606.58 365.469 1610.56 369.625 1614.36 373.906 1619.72 375.859 1626.08 375.859 1632.2 375.906 1637.24 373.836 1641.14 369.797 1645 365.832 1647 360.086 1647 352.766 1647 352.406 1646.98 351.66 1646.95 350.766H1612.39C1612.55 346.094 1614.14 342.375 1616.78 339.844 1619.16 337.375 1622.71 336.063 1626.66 336.063 1629.38 336.375 1632.1 336.68 1634.17 337.922 1636.19 339.188 1637.89 341.133 1639.11 343.844ZM1612.39 357.688H1639.2C1638.78 361.094 1637.82 363.457 1636.13 365.094 1633.5 367.957 1630.18 368.938 1626.03 368.938 1622.29 368.957 1619.16 367.914 1616.61 365.875 1613.85 363.875 1612.65 361.102 1612.39 357.688"/>
<path transform="matrix(.1,0,0,-.1,0,69.12)" d="M1656.06 375H1663.84V336.922H1682.02V375H1689.8V336.922H1707.97V375H1715.77V336.922H1719.22V317.016H1712.3V330H1656.06V375"/>
<path transform="matrix(.1,0,0,-.1,0,69.12)" d="M1758.11 343.844 1765.75 342.984C1764.23 338.594 1762.13 335.18 1758.69 332.766 1755.02 330.426 1750.86 329.141 1745.52 329.141 1738.61 329.43 1733.45 331.148 1729.5 335.172 1725.39 339.477 1723.59 344.852 1723.59 352.125 1723.39 359.926 1725.58 365.469 1729.56 369.625 1733.36 373.906 1738.72 375.859 1745.08 375.859 1751.2 375.906 1756.24 373.836 1760.14 369.797 1764 365.832 1766 360.086 1766 352.766 1766 352.406 1765.98 351.66 1765.95 350.766H1731.39C1731.55 346.094 1733.14 342.375 1735.78 339.844 1738.16 337.375 1741.71 336.063 1745.66 336.063 1748.38 336.375 1751.1 336.68 1753.17 337.922 1755.19 339.188 1756.89 341.133 1758.11 343.844ZM1731.39 357.688H1758.2C1757.78 361.094 1756.82 363.457 1755.13 365.094 1752.5 367.957 1749.18 368.938 1745.03 368.938 1741.29 368.957 1738.16 367.914 1735.61 365.875 1732.85 363.875 1731.65 361.102 1731.39 357.688"/>
<path transform="matrix(.1,0,0,-.1,0,69.12)" d="M1775.06 375H1782.84V356.828H1802.75V375H1810.53V330H1802.75V349.906H1782.84V330H1775.06V375"/>
<path transform="matrix(.1,0,0,-.1,0,69.12)" d="M1823.06 375H1830.84V340.688L1850.22 375H1859.39V330H1851.61V364.109L1832.36 330H1823.06V375"/>
<path transform="matrix(.1,0,0,-.1,0,69.12)" d="M1871.06 375H1878.84V340.688L1898.22 375H1907.39V330H1899.61V364.109L1880.36 330H1871.06V375ZM1897.02 391.438H1902.2C1901.72 388 1900.49 385.031 1898.31 383.094 1896.04 381.457 1893.26 380.188 1889.66 380.188 1885.82 380.457 1883.15 381.145 1880.98 383.063 1878.5 385.301 1877.54 387.781 1877.11 391.438H1882.31C1882.6 389.582 1883.49 387.875 1884.67 386.875 1885.63 385.914 1887.44 385.375 1889.44 385.375 1891.58 385.582 1893.46 385.859 1894.64 386.828 1895.61 387.863 1896.62 389.344 1897.02 391.438"/>
<path transform="matrix(.1,0,0,-.1,0,69.12)" stroke-width="7.22222" stroke-linecap="butt" stroke-miterlimit="10" stroke-linejoin="miter" fill="none" stroke="#000000" d="M588.609 463.699H1156.5"/>
<path transform="matrix(.1,0,0,-.1,0,69.12)" d="M1194.41 463.699 1143.86 438.422 1156.5 463.699 1143.86 488.977 1194.41 463.699"/>
<path transform="matrix(.1,0,0,-.1,0,69.12)" stroke-width="7.22222" stroke-linecap="butt" stroke-miterlimit="10" stroke-linejoin="miter" fill="none" stroke="#000000" d="M1194.41 463.699 1143.86 438.422 1156.5 463.699 1143.86 488.977 1194.41 463.699Z"/>
<path transform="matrix(.1,0,0,-.1,0,69.12)" d="M263.609 247.035C263.609 420.367 263.609 507.035 444.168 507.035 323.773 507.035 323.773 680.367 444.168 680.367 564.563 680.367 564.563 507.035 444.168 507.035 624.723 507.035 624.723 420.367 624.723 247.035H263.609" fill="#ffffff"/>
<path transform="matrix(.1,0,0,-.1,0,69.12)" stroke-width="7.22222" stroke-linecap="butt" stroke-miterlimit="10" stroke-linejoin="miter" fill="none" stroke="#000000" d="M263.609 247.035C263.609 420.367 263.609 507.035 444.168 507.035 323.773 507.035 323.773 680.367 444.168 680.367 564.563 680.367 564.563 507.035 444.168 507.035 624.723 507.035 624.723 420.367 624.723 247.035H263.609Z"/>
<path transform="matrix(.1,0,0,-.1,0,69.12)" d="M141.828 148.469V141.547H164.313C163.914 134.738 162.176 129.098 158.781 125.078 155.125 121.375 151.035 119.063 145.734 119.063 136.051 119.375 130.379 124.25 127.984 134.625L119.328 132.906C122.75 119.094 131.363 112.141 144.844 112.141 154.195 112.43 161.648 115.285 166.359 121.578 170.957 128.008 173.281 135.617 172.969 144.828 172.645 150.52 171.922 155.602 169.828 160.25 167.457 165.145 164.52 168.707 160.188 171.688 155.789 174.781 150.691 176.172 144.703 176.172 138.145 176.445 133.086 174.566 128.828 171.359 124.289 168.363 121.688 163.695 120.188 158L128.844 155.391C130.82 164.832 136.547 169.25 145.172 169.25 150.938 169.5 155.555 167.379 158.859 163.641 161.883 160.02 163.988 154.844 164.313 148.469H141.828"/>
<path transform="matrix(.1,0,0,-.1,0,69.12)" d="M183.516 158H218.125V113.047H210.344V151.078H191.313V129.188C191.207 124.352 191.133 120.711 190.781 119.078 190.176 117.758 189.484 116.031 187.922 114.813 186.051 113.664 184.102 113 181.156 113 179.281 113 177.234 113.113 174.859 113.344V119.922H178.297C179.82 119.945 181.082 120.078 181.781 120.391 182.219 120.914 182.941 121.223 183.172 121.922 183.344 122.656 183.516 124.898 183.516 128.734V158"/>
<path transform="matrix(.1,0,0,-.1,0,69.12)" d="M262.109 126.844 269.75 125.984C268.227 121.594 266.125 118.18 262.688 115.766 259.02 113.426 254.859 112.141 249.516 112.141 242.613 112.43 237.445 114.148 233.5 118.172 229.395 122.477 227.594 127.852 227.594 135.125 227.395 142.926 229.582 148.469 233.563 152.625 237.363 156.906 242.723 158.859 249.078 158.859 255.195 158.906 260.242 156.836 264.141 152.797 268 148.832 270 143.086 270 135.766 270 135.406 269.984 134.66 269.953 133.766H235.391C235.551 129.094 237.145 125.375 239.781 122.844 242.156 120.375 245.707 119.063 249.656 119.063 252.375 119.375 255.098 119.68 257.172 120.922 259.188 122.188 260.891 124.133 262.109 126.844ZM235.391 140.688H262.203C261.781 144.094 260.82 146.457 259.125 148.094 256.5 150.957 253.176 151.938 249.031 151.938 245.289 151.957 242.16 150.914 239.609 148.875 236.852 146.875 235.648 144.102 235.391 140.688"/>
<path transform="matrix(.1,0,0,-.1,0,69.12)" d="M279.063 158H286.844V138.094C289.133 138.395 291.219 138.566 292.25 139.516 293.195 140.633 294.723 143.254 296.578 147.859 297.852 151.539 299.223 153.891 300.109 155.047 300.969 156.52 302.031 156.984 303.188 157.391 304.281 158 306.203 158 308.766 158H310.203V151.031L308.109 151.078C306.094 151.383 304.859 150.789 304.297 150.219 303.613 149.875 302.82 147.828 301.625 144.859 300.27 142.063 299.43 140.031 298.484 138.906 297.375 137.82 296.07 136.77 294.094 135.844 297.313 135.039 300.535 132.008 303.672 126.906L311.938 113H303.031L294.969 126.547C293.113 129.633 292.094 131.422 290.938 132.359 289.477 133.508 288.426 133.766 286.844 133.766V113H279.063V158"/>
<path transform="matrix(.1,0,0,-.1,0,69.12)" d="M313.734 158H350.938V151.078H336.234V113H328.438V151.078H313.734V158"/>
<path transform="matrix(.1,0,0,-.1,0,69.12)" d="M357.188 95.6875V158H364.984V151.094C366.238 153.988 368.359 155.629 370.359 156.922 372.238 158.238 374.785 158.859 377.641 158.859 381.156 158.906 384.656 157.875 387.5 155.906 390.188 153.977 392.504 151.176 393.953 147.594 395.082 144.156 396.125 140.098 396.125 135.828 396.082 131.313 395.305 127.133 393.672 123.469 391.813 119.988 389.656 117.008 386.531 115.063 383.238 113.426 380.133 112.141 376.688 112.141 373.945 112.43 371.914 112.73 369.906 113.906 367.602 115.125 366.266 116.594 364.984 118.406V95.6875H357.188ZM364.984 135.125C364.656 129.938 366.102 125.598 368.344 122.984 370.477 120.375 373.316 119.063 376.516 119.063 379.594 119.375 382.547 120.414 384.859 123.125 386.895 126.125 388.344 130.031 388.344 135.719 388.227 141.238 387.207 145.203 384.938 147.891 382.363 150.625 379.977 151.938 376.844 151.938 373.445 151.957 370.973 150.5 368.578 147.625 365.988 144.883 364.984 140.594 364.984 135.125"/>
<path transform="matrix(.1,0,0,-.1,0,69.12)" d="M403.469 135.5C403.313 143.938 405.742 149.898 410.297 153.891 414.008 157.238 418.758 158.859 424.25 158.859 430.258 158.906 435.32 156.844 439.188 152.813 443 148.844 445 143.219 445 136.125 445 130.664 444.141 125.848 442.422 122.547 440.57 119.406 438.223 116.695 434.953 114.875 431.363 113.094 428.113 112.141 424.25 112.141 417.957 112.43 413.023 114.145 409.203 118.156 405.313 122.445 403.469 127.945 403.469 135.5ZM411.25 135.516C411.164 130.176 412.477 125.895 414.938 123.156 417.094 120.707 420.508 119.063 424.25 119.063 427.875 119.375 431.039 120.43 433.5 123.172 435.801 126.195 437.203 130.113 437.203 135.75 437.133 141.156 435.961 145.098 433.484 147.828 430.844 150.625 427.926 151.938 424.25 151.938 420.426 151.957 417.406 150.57 414.938 147.844 412.164 145.176 411.25 141.016 411.25 135.516"/>
<path transform="matrix(.1,0,0,-.1,0,69.12)" d="M482.609 129.438 490.391 128.578C489.457 123.57 487.508 119.406 484.156 116.5 480.75 113.758 476.68 112.141 471.797 112.141 465.406 112.43 460.75 114.133 457.031 118.125 453.313 122.414 451.469 127.859 451.469 135.328 451.313 140.375 452.266 144.367 453.859 147.984 455.164 151.613 457.875 154.328 461.125 156.141 464.344 158.238 467.926 158.859 471.75 158.859 476.344 158.906 480.551 157.578 483.625 155.016 486.488 152.789 488.664 148.844 489.531 144.156L481.75 143.281C480.813 146.395 479.848 148.316 478.109 149.766 476.332 151.289 474.27 151.938 471.813 151.938 467.813 151.957 465.055 150.625 462.734 148 460.164 145.375 459.25 141.219 459.25 135.531 459.164 129.926 460.379 125.582 462.641 122.969 464.695 120.375 467.875 119.063 471.531 119.063 474.289 119.375 476.914 119.91 478.875 121.609 480.551 123.438 482.086 125.914 482.609 129.438"/>
<path transform="matrix(.1,0,0,-.1,0,69.12)" d="M525.609 119.063C522.477 116.832 519.953 114.727 517.422 113.688 514.758 112.762 512.195 112.141 509.313 112.141 504.438 112.43 500.875 113.336 498.313 115.734 495.645 118.227 494.469 121.211 494.469 124.953 494.313 127.156 494.953 129.141 495.922 130.953 496.582 132.781 498.156 134.219 499.719 135.313 501.051 136.633 503.055 137.238 505.016 137.813 506.457 138.258 508.645 138.57 511.563 138.938 517.32 139.695 521.891 140.547 524.703 141.547 524.5 142.676 524.75 143.145 524.75 143.406 524.5 146.5 524.055 148.344 522.672 149.531 520.582 151.289 518.035 151.938 514.359 151.938 510.801 151.957 508.383 151.363 506.75 150.219 504.863 149.332 503.898 147.051 503.109 144.156L495.328 145.016C495.906 148.531 497.141 150.773 498.703 152.734 500.039 154.789 502.539 156.211 505.5 157.266 508.301 158.57 511.91 158.859 515.828 158.859 519.426 158.906 522.848 158.398 525.266 157.484 527.602 156.738 529.473 155.414 530.609 154.031 531.551 152.969 532.555 150.891 533.016 148.766 533.258 147.531 533.391 145.18 533.391 141.953V132.297C533.258 125.789 533.563 121.133 533.906 119.031 533.957 117.258 534.957 114.926 536 113H528.203C526.789 114.727 525.992 116.75 525.609 119.063ZM524.75 134.625C521.813 133.75 518.031 132.781 512.656 132.094 509.395 131.988 507.457 131.234 506.188 130.734 504.863 130.332 503.953 129.516 503.266 128.547 502.5 127.727 502.25 126.508 502.25 125.344 502.164 123.77 502.992 122.055 504.484 120.859 505.813 119.707 508.156 119.063 511.031 119.063 513.875 119.375 516.414 119.676 518.625 120.906 520.633 122.164 522.473 123.711 523.516 125.641 524.133 127.25 524.703 129.32 524.703 132.219L524.75 134.625"/>
<path transform="matrix(.1,0,0,-.1,0,69.12)" d="M546.063 158H558.641L569.734 121.984 581.703 158H593.641V113H585.859V149.219L573.813 113H565.391L553.844 150.969V113H546.063V158"/>
<path transform="matrix(.1,0,0,-.1,0,69.12)" d="M602.469 135.5C602.313 143.938 604.742 149.898 609.297 153.891 613.008 157.238 617.758 158.859 623.25 158.859 629.258 158.906 634.32 156.844 638.188 152.813 642 148.844 644 143.219 644 136.125 644 130.664 643.141 125.848 641.422 122.547 639.57 119.406 637.223 116.695 633.953 114.875 630.363 113.094 627.113 112.141 623.25 112.141 616.957 112.43 612.023 114.145 608.203 118.156 604.313 122.445 602.469 127.945 602.469 135.5ZM610.25 135.516C610.164 130.176 611.477 125.895 613.938 123.156 616.094 120.707 619.508 119.063 623.25 119.063 626.875 119.375 630.039 120.43 632.5 123.172 634.801 126.195 636.203 130.113 636.203 135.75 636.133 141.156 634.961 145.098 632.484 147.828 629.844 150.625 626.926 151.938 623.25 151.938 619.426 151.957 616.406 150.57 613.938 147.844 611.164 145.176 610.25 141.016 610.25 135.516"/>
<path transform="matrix(.1,0,0,-.1,0,69.12)" d="M653.063 158H660.844V138.094C663.133 138.395 665.219 138.566 666.25 139.516 667.195 140.633 668.723 143.254 670.578 147.859 671.852 151.539 673.223 153.891 674.109 155.047 674.969 156.52 676.031 156.984 677.188 157.391 678.281 158 680.203 158 682.766 158H684.203V151.031L682.109 151.078C680.094 151.383 678.859 150.789 678.297 150.219 677.613 149.875 676.82 147.828 675.625 144.859 674.27 142.063 673.43 140.031 672.484 138.906 671.375 137.82 670.07 136.77 668.094 135.844 671.313 135.039 674.535 132.008 677.672 126.906L685.938 113H677.031L668.969 126.547C667.113 129.633 666.094 131.422 664.938 132.359 663.477 133.508 662.426 133.766 660.844 133.766V113H653.063V158"/>
<path transform="matrix(.1,0,0,-.1,0,69.12)" d="M721.609 119.063C718.477 116.832 715.953 114.727 713.422 113.688 710.758 112.762 708.195 112.141 705.313 112.141 700.438 112.43 696.875 113.336 694.313 115.734 691.645 118.227 690.469 121.211 690.469 124.953 690.313 127.156 690.953 129.141 691.922 130.953 692.582 132.781 694.156 134.219 695.719 135.313 697.051 136.633 699.055 137.238 701.016 137.813 702.457 138.258 704.645 138.57 707.563 138.938 713.32 139.695 717.891 140.547 720.703 141.547 720.5 142.676 720.75 143.145 720.75 143.406 720.5 146.5 720.055 148.344 718.672 149.531 716.582 151.289 714.035 151.938 710.359 151.938 706.801 151.957 704.383 151.363 702.75 150.219 700.863 149.332 699.898 147.051 699.109 144.156L691.328 145.016C691.906 148.531 693.141 150.773 694.703 152.734 696.039 154.789 698.539 156.211 701.5 157.266 704.301 158.57 707.91 158.859 711.828 158.859 715.426 158.906 718.848 158.398 721.266 157.484 723.602 156.738 725.473 155.414 726.609 154.031 727.551 152.969 728.555 150.891 729.016 148.766 729.258 147.531 729.391 145.18 729.391 141.953V132.297C729.258 125.789 729.563 121.133 729.906 119.031 729.957 117.258 730.957 114.926 732 113H724.203C722.789 114.727 721.992 116.75 721.609 119.063ZM720.75 134.625C717.813 133.75 714.031 132.781 708.656 132.094 705.395 131.988 703.457 131.234 702.188 130.734 700.863 130.332 699.953 129.516 699.266 128.547 698.5 127.727 698.25 126.508 698.25 125.344 698.164 123.77 698.992 122.055 700.484 120.859 701.813 119.707 704.156 119.063 707.031 119.063 709.875 119.375 712.414 119.676 714.625 120.906 716.633 122.164 718.473 123.711 719.516 125.641 720.133 127.25 720.703 129.32 720.703 132.219L720.75 134.625"/>
<path transform="matrix(.1,0,0,-.1,0,69.12)" d="M735.734 158H772.938V151.078H758.234V113H750.438V151.078H735.734V158"/>
</g>
</svg>
